<svg xmlns="http://www.w3.org/2000/svg" viewBox="0 0 1920 620" preserveAspectRatio="xMidYMid slice">
  <defs>
    <!-- Hintergrundgradient -->
    <linearGradient id="bg" x1="0" y1="0" x2="1" y2="1">
      <stop offset="0" stop-color="#0e2a3a"/>
      <stop offset="1" stop-color="#3a2044"/>
    </linearGradient>

    <!-- weiche Volumenwolke -->
    <filter id="soft" x="-50%" y="-50%" width="200%" height="200%">
      <feGaussianBlur stdDeviation="28"/>
    </filter>

    <!-- Lichtkante / Glanz -->
    <radialGradient id="glow" cx="55%" cy="40%" r="55%">
      <stop offset="0"  stop-color="#ffd3bf" stop-opacity="0.9"/>
      <stop offset="0.5" stop-color="#b7d9ff" stop-opacity="0.35"/>
      <stop offset="1"  stop-color="#ffffff" stop-opacity="0"/>
    </radialGradient>

    <!-- Farbpalette für "Cluster-Loben" -->
    <linearGradient id="lobeA" x1="0" y1="0" x2="1" y2="1">
      <stop offset="0" stop-color="#7ad6e8"/>
      <stop offset="1" stop-color="#c3abff"/>
    </linearGradient>
    <linearGradient id="lobeB" x1="1" y1="0" x2="0" y2="1">
      <stop offset="0" stop-color="#ffc7b3"/>
      <stop offset="1" stop-color="#8ed7c4"/>
    </linearGradient>
    <linearGradient id="lobeC" x1="0" y1="1" x2="1" y2="0">
      <stop offset="0" stop-color="#f9b2d1"/>
      <stop offset="1" stop-color="#79c2ff"/>
    </linearGradient>
  </defs>

  <!-- Hintergrund -->
  <rect width="100%" height="100%" fill="url(#bg)"/>

  <!-- dezente "Staub"-Partikel -->
  <g fill="#ffffff" opacity="0.15">
    <circle cx="120" cy="70" r="1.3"/>
    <circle cx="380" cy="150" r="1.1"/>
    <circle cx="820" cy="90" r="1.5"/>
    <circle cx="1340" cy="120" r="1.2"/>
    <circle cx="1720" cy="220" r="1.4"/>
    <circle cx="430" cy="420" r="1.2"/>
    <circle cx="980" cy="500" r="1.0"/>
    <circle cx="1560" cy="380" r="1.3"/>
  </g>

  <!-- Inflammasom-Cluster (weiche, überlagerte Loben) -->
  <g filter="url(#soft)">
    <circle cx="1060" cy="340" r="170" fill="url(#lobeA)" opacity="0.95"/>
    <circle cx="1190" cy="280" r="140" fill="url(#lobeB)" opacity="0.90"/>
    <circle cx="980"  cy="240" r="120" fill="url(#lobeC)" opacity="0.90"/>
    <circle cx="1120" cy="460" r="130" fill="url(#lobeB)" opacity="0.85"/>
    <circle cx="1280" cy="420" r="150" fill="url(#lobeA)" opacity="0.80"/>
    <circle cx="910"  cy="420" r="110" fill="url(#lobeC)" opacity="0.80"/>
  </g>

  <!-- Glanz/Volumetrisches Licht -->
  <rect x="820" y="80" width="700" height="520" fill="url(#glow)" opacity="0.55"/>

  <!-- linker Bereich etwas ruhiger (Platz für Text, falls nötig) -->
  <rect x="0" y="0" width="760" height="620" fill="url(#bg)" opacity="0.55"/>
</svg>
